<mxfile host="app.diagrams.net" modified="2023-08-17T08:37:29.464Z" agent="Mozilla/5.0 (X11; Linux x86_64) AppleWebKit/537.36 (KHTML, like Gecko) Chrome/115.0.0.0 Safari/537.36" etag="H2gMghd-G3E0BpdZoeQ8" version="21.6.8" type="device" pages="5">
  <diagram name="Page-1" id="d59C5zg_7T1TeNgBpkGo">
    <mxGraphModel dx="879" dy="594" grid="1" gridSize="10" guides="1" tooltips="1" connect="1" arrows="1" fold="1" page="1" pageScale="1" pageWidth="1100" pageHeight="850" math="0" shadow="0">
      <root>
        <mxCell id="0" />
        <mxCell id="1" parent="0" />
        <mxCell id="HXuZYWFXMnalEL0bIfrd-1" value="" style="rounded=0;whiteSpace=wrap;html=1;" parent="1" vertex="1">
          <mxGeometry x="80" y="50" width="320" height="530" as="geometry" />
        </mxCell>
        <mxCell id="HXuZYWFXMnalEL0bIfrd-2" value="" style="rounded=0;whiteSpace=wrap;html=1;" parent="1" vertex="1">
          <mxGeometry x="400" y="50" width="640" height="530" as="geometry" />
        </mxCell>
        <mxCell id="HXuZYWFXMnalEL0bIfrd-3" value="main thread" style="shape=hexagon;perimeter=hexagonPerimeter2;whiteSpace=wrap;html=1;fixedSize=1;fontFamily=Ubuntu;fontSource=https%3A%2F%2Ffonts.googleapis.com%2Fcss%3Ffamily%3DUbuntu;fontSize=17;" parent="1" vertex="1">
          <mxGeometry x="180" y="10" width="120" height="30" as="geometry" />
        </mxCell>
        <mxCell id="HXuZYWFXMnalEL0bIfrd-4" value="STACK" style="text;html=1;strokeColor=none;fillColor=none;align=center;verticalAlign=middle;whiteSpace=wrap;rounded=0;fontFamily=Ubuntu;fontSource=https%3A%2F%2Ffonts.googleapis.com%2Fcss%3Ffamily%3DUbuntu;fontSize=16;fontStyle=1" parent="1" vertex="1">
          <mxGeometry x="200" y="590" width="60" height="30" as="geometry" />
        </mxCell>
        <mxCell id="HXuZYWFXMnalEL0bIfrd-5" value="HEAP" style="text;html=1;strokeColor=none;fillColor=none;align=center;verticalAlign=middle;whiteSpace=wrap;rounded=0;fontFamily=Ubuntu;fontSource=https%3A%2F%2Ffonts.googleapis.com%2Fcss%3Ffamily%3DUbuntu;fontSize=16;fontStyle=1" parent="1" vertex="1">
          <mxGeometry x="510" y="590" width="60" height="30" as="geometry" />
        </mxCell>
        <mxCell id="HXuZYWFXMnalEL0bIfrd-6" value="" style="rounded=0;whiteSpace=wrap;html=1;fillColor=#d5e8d4;strokeColor=#82b366;strokeWidth=10;" parent="1" vertex="1">
          <mxGeometry x="80" y="460" width="320" height="120" as="geometry" />
        </mxCell>
        <mxCell id="HXuZYWFXMnalEL0bIfrd-7" value="main()" style="text;html=1;strokeColor=#82b366;fillColor=#d5e8d4;align=center;verticalAlign=middle;whiteSpace=wrap;rounded=0;fontFamily=Ubuntu;fontSource=https%3A%2F%2Ffonts.googleapis.com%2Fcss%3Ffamily%3DUbuntu;fontSize=17;rotation=-90;" parent="1" vertex="1">
          <mxGeometry x="6.88" y="526.88" width="86.25" height="30" as="geometry" />
        </mxCell>
        <mxCell id="HXuZYWFXMnalEL0bIfrd-14" style="edgeStyle=orthogonalEdgeStyle;rounded=0;orthogonalLoop=1;jettySize=auto;html=1;entryX=0;entryY=0.5;entryDx=0;entryDy=0;" parent="1" source="HXuZYWFXMnalEL0bIfrd-8" target="HXuZYWFXMnalEL0bIfrd-12" edge="1">
          <mxGeometry relative="1" as="geometry" />
        </mxCell>
        <mxCell id="HXuZYWFXMnalEL0bIfrd-8" value="String[] args = 0xAF10" style="rounded=0;whiteSpace=wrap;html=1;fontFamily=Ubuntu;fontSource=https%3A%2F%2Ffonts.googleapis.com%2Fcss%3Ffamily%3DUbuntu;fontSize=17;" parent="1" vertex="1">
          <mxGeometry x="80" y="460" width="320" height="40" as="geometry" />
        </mxCell>
        <mxCell id="HXuZYWFXMnalEL0bIfrd-9" value="..." style="rounded=0;whiteSpace=wrap;html=1;fontFamily=Ubuntu;fontSource=https%3A%2F%2Ffonts.googleapis.com%2Fcss%3Ffamily%3DUbuntu;fontSize=17;" parent="1" vertex="1">
          <mxGeometry x="80" y="540" width="320" height="40" as="geometry" />
        </mxCell>
        <mxCell id="HXuZYWFXMnalEL0bIfrd-10" value="" style="rounded=0;whiteSpace=wrap;html=1;" parent="1" vertex="1">
          <mxGeometry x="490" y="240" width="20" height="40" as="geometry" />
        </mxCell>
        <mxCell id="HXuZYWFXMnalEL0bIfrd-11" value="int length = 0" style="rounded=0;whiteSpace=wrap;html=1;fontSize=18;fontFamily=Ubuntu;fontSource=https%3A%2F%2Ffonts.googleapis.com%2Fcss%3Ffamily%3DUbuntu;" parent="1" vertex="1">
          <mxGeometry x="490" y="280" width="140" height="40" as="geometry" />
        </mxCell>
        <mxCell id="HXuZYWFXMnalEL0bIfrd-12" value="0xAF10" style="rounded=0;whiteSpace=wrap;html=1;fontFamily=Ubuntu;fontSource=https%3A%2F%2Ffonts.googleapis.com%2Fcss%3Ffamily%3DUbuntu;fontSize=17;fillColor=#dae8fc;strokeColor=#6c8ebf;" parent="1" vertex="1">
          <mxGeometry x="490" y="210" width="140" height="30" as="geometry" />
        </mxCell>
        <mxCell id="HXuZYWFXMnalEL0bIfrd-13" value="..." style="rounded=0;whiteSpace=wrap;html=1;fontSize=18;fontFamily=Ubuntu;fontSource=https%3A%2F%2Ffonts.googleapis.com%2Fcss%3Ffamily%3DUbuntu;" parent="1" vertex="1">
          <mxGeometry x="490" y="320" width="140" height="40" as="geometry" />
        </mxCell>
        <mxCell id="ICK5VJWrA5xjREezXN3a-1" value="&lt;font style=&quot;font-size: 20px;&quot;&gt;&lt;br&gt;&lt;/font&gt;" style="text;html=1;strokeColor=#b85450;fillColor=#f8cecc;align=left;verticalAlign=top;whiteSpace=wrap;rounded=0;fontFamily=Ubuntu;fontSource=https%3A%2F%2Ffonts.googleapis.com%2Fcss%3Ffamily%3DUbuntu;fontSize=20;" parent="1" vertex="1">
          <mxGeometry x="710" y="80" width="480" height="230" as="geometry" />
        </mxCell>
        <mxCell id="3Ek7rtUzpndbFkCY8kfh-4" style="edgeStyle=orthogonalEdgeStyle;rounded=0;orthogonalLoop=1;jettySize=auto;html=1;entryX=0;entryY=0.25;entryDx=0;entryDy=0;" edge="1" parent="1" source="3Ek7rtUzpndbFkCY8kfh-1" target="3Ek7rtUzpndbFkCY8kfh-3">
          <mxGeometry relative="1" as="geometry" />
        </mxCell>
        <mxCell id="3Ek7rtUzpndbFkCY8kfh-1" value="String str = 0xAF11" style="rounded=0;whiteSpace=wrap;html=1;fontFamily=Ubuntu;fontSource=https%3A%2F%2Ffonts.googleapis.com%2Fcss%3Ffamily%3DUbuntu;fontSize=17;" vertex="1" parent="1">
          <mxGeometry x="80" y="500" width="320" height="40" as="geometry" />
        </mxCell>
        <mxCell id="3Ek7rtUzpndbFkCY8kfh-2" value="IJSE" style="text;html=1;align=center;verticalAlign=middle;whiteSpace=wrap;rounded=0;fontFamily=Ubuntu;fontSource=https%3A%2F%2Ffonts.googleapis.com%2Fcss%3Ffamily%3DUbuntu;fontSize=19;fillColor=#fff2cc;strokeColor=#d6b656;" vertex="1" parent="1">
          <mxGeometry x="580" y="420" width="100" height="30" as="geometry" />
        </mxCell>
        <mxCell id="3Ek7rtUzpndbFkCY8kfh-3" value="0xAF11" style="rounded=0;whiteSpace=wrap;html=1;fontFamily=Ubuntu;fontSource=https%3A%2F%2Ffonts.googleapis.com%2Fcss%3Ffamily%3DUbuntu;fontSize=17;fillColor=#dae8fc;strokeColor=#6c8ebf;" vertex="1" parent="1">
          <mxGeometry x="580" y="390" width="100" height="30" as="geometry" />
        </mxCell>
      </root>
    </mxGraphModel>
  </diagram>
  <diagram name="Page-2" id="4XuChGcRx-CImv69tZxq">
    <mxGraphModel dx="879" dy="594" grid="1" gridSize="10" guides="1" tooltips="1" connect="1" arrows="1" fold="1" page="1" pageScale="1" pageWidth="1100" pageHeight="850" math="0" shadow="0">
      <root>
        <mxCell id="QQMcLgAakovRUyP8tzHI-0" />
        <mxCell id="QQMcLgAakovRUyP8tzHI-1" parent="QQMcLgAakovRUyP8tzHI-0" />
        <mxCell id="QQMcLgAakovRUyP8tzHI-2" value="" style="rounded=0;whiteSpace=wrap;html=1;" vertex="1" parent="QQMcLgAakovRUyP8tzHI-1">
          <mxGeometry x="80" y="50" width="320" height="530" as="geometry" />
        </mxCell>
        <mxCell id="QQMcLgAakovRUyP8tzHI-3" value="" style="rounded=0;whiteSpace=wrap;html=1;" vertex="1" parent="QQMcLgAakovRUyP8tzHI-1">
          <mxGeometry x="400" y="50" width="640" height="530" as="geometry" />
        </mxCell>
        <mxCell id="QQMcLgAakovRUyP8tzHI-4" value="main thread" style="shape=hexagon;perimeter=hexagonPerimeter2;whiteSpace=wrap;html=1;fixedSize=1;fontFamily=Ubuntu;fontSource=https%3A%2F%2Ffonts.googleapis.com%2Fcss%3Ffamily%3DUbuntu;fontSize=17;" vertex="1" parent="QQMcLgAakovRUyP8tzHI-1">
          <mxGeometry x="180" y="10" width="120" height="30" as="geometry" />
        </mxCell>
        <mxCell id="QQMcLgAakovRUyP8tzHI-5" value="STACK" style="text;html=1;strokeColor=none;fillColor=none;align=center;verticalAlign=middle;whiteSpace=wrap;rounded=0;fontFamily=Ubuntu;fontSource=https%3A%2F%2Ffonts.googleapis.com%2Fcss%3Ffamily%3DUbuntu;fontSize=16;fontStyle=1" vertex="1" parent="QQMcLgAakovRUyP8tzHI-1">
          <mxGeometry x="200" y="590" width="60" height="30" as="geometry" />
        </mxCell>
        <mxCell id="QQMcLgAakovRUyP8tzHI-6" value="HEAP" style="text;html=1;strokeColor=none;fillColor=none;align=center;verticalAlign=middle;whiteSpace=wrap;rounded=0;fontFamily=Ubuntu;fontSource=https%3A%2F%2Ffonts.googleapis.com%2Fcss%3Ffamily%3DUbuntu;fontSize=16;fontStyle=1" vertex="1" parent="QQMcLgAakovRUyP8tzHI-1">
          <mxGeometry x="510" y="590" width="60" height="30" as="geometry" />
        </mxCell>
        <mxCell id="QQMcLgAakovRUyP8tzHI-7" value="" style="rounded=0;whiteSpace=wrap;html=1;fillColor=#d5e8d4;strokeColor=#82b366;strokeWidth=10;" vertex="1" parent="QQMcLgAakovRUyP8tzHI-1">
          <mxGeometry x="80" y="460" width="320" height="120" as="geometry" />
        </mxCell>
        <mxCell id="QQMcLgAakovRUyP8tzHI-8" value="main()" style="text;html=1;strokeColor=#82b366;fillColor=#d5e8d4;align=center;verticalAlign=middle;whiteSpace=wrap;rounded=0;fontFamily=Ubuntu;fontSource=https%3A%2F%2Ffonts.googleapis.com%2Fcss%3Ffamily%3DUbuntu;fontSize=17;rotation=-90;" vertex="1" parent="QQMcLgAakovRUyP8tzHI-1">
          <mxGeometry x="6.88" y="526.88" width="86.25" height="30" as="geometry" />
        </mxCell>
        <mxCell id="QQMcLgAakovRUyP8tzHI-9" style="edgeStyle=orthogonalEdgeStyle;rounded=0;orthogonalLoop=1;jettySize=auto;html=1;entryX=0;entryY=0.5;entryDx=0;entryDy=0;" edge="1" parent="QQMcLgAakovRUyP8tzHI-1" source="QQMcLgAakovRUyP8tzHI-10" target="QQMcLgAakovRUyP8tzHI-14">
          <mxGeometry relative="1" as="geometry" />
        </mxCell>
        <mxCell id="QQMcLgAakovRUyP8tzHI-10" value="String[] args = 0xAF10" style="rounded=0;whiteSpace=wrap;html=1;fontFamily=Ubuntu;fontSource=https%3A%2F%2Ffonts.googleapis.com%2Fcss%3Ffamily%3DUbuntu;fontSize=17;" vertex="1" parent="QQMcLgAakovRUyP8tzHI-1">
          <mxGeometry x="80" y="460" width="320" height="40" as="geometry" />
        </mxCell>
        <mxCell id="QQMcLgAakovRUyP8tzHI-11" value="..." style="rounded=0;whiteSpace=wrap;html=1;fontFamily=Ubuntu;fontSource=https%3A%2F%2Ffonts.googleapis.com%2Fcss%3Ffamily%3DUbuntu;fontSize=17;" vertex="1" parent="QQMcLgAakovRUyP8tzHI-1">
          <mxGeometry x="80" y="540" width="320" height="40" as="geometry" />
        </mxCell>
        <mxCell id="QQMcLgAakovRUyP8tzHI-12" value="" style="rounded=0;whiteSpace=wrap;html=1;" vertex="1" parent="QQMcLgAakovRUyP8tzHI-1">
          <mxGeometry x="490" y="240" width="20" height="40" as="geometry" />
        </mxCell>
        <mxCell id="QQMcLgAakovRUyP8tzHI-13" value="int length = 0" style="rounded=0;whiteSpace=wrap;html=1;fontSize=18;fontFamily=Ubuntu;fontSource=https%3A%2F%2Ffonts.googleapis.com%2Fcss%3Ffamily%3DUbuntu;" vertex="1" parent="QQMcLgAakovRUyP8tzHI-1">
          <mxGeometry x="490" y="280" width="140" height="40" as="geometry" />
        </mxCell>
        <mxCell id="QQMcLgAakovRUyP8tzHI-14" value="0xAF10" style="rounded=0;whiteSpace=wrap;html=1;fontFamily=Ubuntu;fontSource=https%3A%2F%2Ffonts.googleapis.com%2Fcss%3Ffamily%3DUbuntu;fontSize=17;fillColor=#dae8fc;strokeColor=#6c8ebf;" vertex="1" parent="QQMcLgAakovRUyP8tzHI-1">
          <mxGeometry x="490" y="210" width="140" height="30" as="geometry" />
        </mxCell>
        <mxCell id="QQMcLgAakovRUyP8tzHI-15" value="..." style="rounded=0;whiteSpace=wrap;html=1;fontSize=18;fontFamily=Ubuntu;fontSource=https%3A%2F%2Ffonts.googleapis.com%2Fcss%3Ffamily%3DUbuntu;" vertex="1" parent="QQMcLgAakovRUyP8tzHI-1">
          <mxGeometry x="490" y="320" width="140" height="40" as="geometry" />
        </mxCell>
        <mxCell id="QQMcLgAakovRUyP8tzHI-16" value="&lt;font style=&quot;font-size: 20px;&quot;&gt;&lt;br&gt;&lt;/font&gt;" style="text;html=1;strokeColor=#b85450;fillColor=#f8cecc;align=left;verticalAlign=top;whiteSpace=wrap;rounded=0;fontFamily=Ubuntu;fontSource=https%3A%2F%2Ffonts.googleapis.com%2Fcss%3Ffamily%3DUbuntu;fontSize=20;" vertex="1" parent="QQMcLgAakovRUyP8tzHI-1">
          <mxGeometry x="710" y="80" width="480" height="230" as="geometry" />
        </mxCell>
        <mxCell id="QQMcLgAakovRUyP8tzHI-17" style="edgeStyle=orthogonalEdgeStyle;rounded=0;orthogonalLoop=1;jettySize=auto;html=1;entryX=0;entryY=0.25;entryDx=0;entryDy=0;" edge="1" parent="QQMcLgAakovRUyP8tzHI-1" source="QQMcLgAakovRUyP8tzHI-18" target="QQMcLgAakovRUyP8tzHI-20">
          <mxGeometry relative="1" as="geometry" />
        </mxCell>
        <mxCell id="QQMcLgAakovRUyP8tzHI-18" value="String str = 0xAF11" style="rounded=0;whiteSpace=wrap;html=1;fontFamily=Ubuntu;fontSource=https%3A%2F%2Ffonts.googleapis.com%2Fcss%3Ffamily%3DUbuntu;fontSize=17;" vertex="1" parent="QQMcLgAakovRUyP8tzHI-1">
          <mxGeometry x="80" y="500" width="320" height="40" as="geometry" />
        </mxCell>
        <mxCell id="QQMcLgAakovRUyP8tzHI-19" value="IJSE" style="text;html=1;align=center;verticalAlign=middle;whiteSpace=wrap;rounded=0;fontFamily=Ubuntu;fontSource=https%3A%2F%2Ffonts.googleapis.com%2Fcss%3Ffamily%3DUbuntu;fontSize=19;fillColor=#fff2cc;strokeColor=#d6b656;" vertex="1" parent="QQMcLgAakovRUyP8tzHI-1">
          <mxGeometry x="590" y="450" width="100" height="30" as="geometry" />
        </mxCell>
        <mxCell id="QQMcLgAakovRUyP8tzHI-20" value="0xAF11" style="rounded=0;whiteSpace=wrap;html=1;fontFamily=Ubuntu;fontSource=https%3A%2F%2Ffonts.googleapis.com%2Fcss%3Ffamily%3DUbuntu;fontSize=17;fillColor=#dae8fc;strokeColor=#6c8ebf;" vertex="1" parent="QQMcLgAakovRUyP8tzHI-1">
          <mxGeometry x="590" y="420" width="100" height="30" as="geometry" />
        </mxCell>
        <mxCell id="ni6qAbllbxf3Pthm7IOm-0" value="" style="rounded=0;whiteSpace=wrap;html=1;fillColor=#dae8fc;strokeColor=#6c8ebf;strokeWidth=10;" vertex="1" parent="QQMcLgAakovRUyP8tzHI-1">
          <mxGeometry x="80" y="380" width="320" height="80" as="geometry" />
        </mxCell>
        <mxCell id="ni6qAbllbxf3Pthm7IOm-1" value="changeString()" style="text;html=1;strokeColor=#82b366;fillColor=#d5e8d4;align=center;verticalAlign=middle;whiteSpace=wrap;rounded=0;fontFamily=Ubuntu;fontSource=https%3A%2F%2Ffonts.googleapis.com%2Fcss%3Ffamily%3DUbuntu;fontSize=17;rotation=-90;" vertex="1" parent="QQMcLgAakovRUyP8tzHI-1">
          <mxGeometry x="-16.56" y="380" width="133.12" height="30" as="geometry" />
        </mxCell>
        <mxCell id="ni6qAbllbxf3Pthm7IOm-4" style="edgeStyle=orthogonalEdgeStyle;rounded=0;orthogonalLoop=1;jettySize=auto;html=1;entryX=0;entryY=0.25;entryDx=0;entryDy=0;" edge="1" parent="QQMcLgAakovRUyP8tzHI-1" source="ni6qAbllbxf3Pthm7IOm-2" target="QQMcLgAakovRUyP8tzHI-20">
          <mxGeometry relative="1" as="geometry" />
        </mxCell>
        <mxCell id="ni6qAbllbxf3Pthm7IOm-2" value="String str = 0xAF11" style="rounded=0;whiteSpace=wrap;html=1;fontFamily=Ubuntu;fontSource=https%3A%2F%2Ffonts.googleapis.com%2Fcss%3Ffamily%3DUbuntu;fontSize=17;" vertex="1" parent="QQMcLgAakovRUyP8tzHI-1">
          <mxGeometry x="80" y="380" width="320" height="40" as="geometry" />
        </mxCell>
        <mxCell id="ni6qAbllbxf3Pthm7IOm-3" value="..." style="rounded=0;whiteSpace=wrap;html=1;fontFamily=Ubuntu;fontSource=https%3A%2F%2Ffonts.googleapis.com%2Fcss%3Ffamily%3DUbuntu;fontSize=17;" vertex="1" parent="QQMcLgAakovRUyP8tzHI-1">
          <mxGeometry x="80" y="420" width="320" height="40" as="geometry" />
        </mxCell>
      </root>
    </mxGraphModel>
  </diagram>
  <diagram name="Page-3" id="FTI1754GUXOUy39nWzXb">
    <mxGraphModel dx="879" dy="594" grid="1" gridSize="10" guides="1" tooltips="1" connect="1" arrows="1" fold="1" page="1" pageScale="1" pageWidth="1100" pageHeight="850" math="0" shadow="0">
      <root>
        <mxCell id="Wd8cycBAGi9nkuMcNOLd-0" />
        <mxCell id="Wd8cycBAGi9nkuMcNOLd-1" parent="Wd8cycBAGi9nkuMcNOLd-0" />
        <mxCell id="Wd8cycBAGi9nkuMcNOLd-2" value="" style="rounded=0;whiteSpace=wrap;html=1;" vertex="1" parent="Wd8cycBAGi9nkuMcNOLd-1">
          <mxGeometry x="80" y="50" width="320" height="530" as="geometry" />
        </mxCell>
        <mxCell id="Wd8cycBAGi9nkuMcNOLd-3" value="" style="rounded=0;whiteSpace=wrap;html=1;" vertex="1" parent="Wd8cycBAGi9nkuMcNOLd-1">
          <mxGeometry x="400" y="50" width="640" height="530" as="geometry" />
        </mxCell>
        <mxCell id="Wd8cycBAGi9nkuMcNOLd-4" value="main thread" style="shape=hexagon;perimeter=hexagonPerimeter2;whiteSpace=wrap;html=1;fixedSize=1;fontFamily=Ubuntu;fontSource=https%3A%2F%2Ffonts.googleapis.com%2Fcss%3Ffamily%3DUbuntu;fontSize=17;" vertex="1" parent="Wd8cycBAGi9nkuMcNOLd-1">
          <mxGeometry x="180" y="10" width="120" height="30" as="geometry" />
        </mxCell>
        <mxCell id="Wd8cycBAGi9nkuMcNOLd-5" value="STACK" style="text;html=1;strokeColor=none;fillColor=none;align=center;verticalAlign=middle;whiteSpace=wrap;rounded=0;fontFamily=Ubuntu;fontSource=https%3A%2F%2Ffonts.googleapis.com%2Fcss%3Ffamily%3DUbuntu;fontSize=16;fontStyle=1" vertex="1" parent="Wd8cycBAGi9nkuMcNOLd-1">
          <mxGeometry x="200" y="590" width="60" height="30" as="geometry" />
        </mxCell>
        <mxCell id="Wd8cycBAGi9nkuMcNOLd-6" value="HEAP" style="text;html=1;strokeColor=none;fillColor=none;align=center;verticalAlign=middle;whiteSpace=wrap;rounded=0;fontFamily=Ubuntu;fontSource=https%3A%2F%2Ffonts.googleapis.com%2Fcss%3Ffamily%3DUbuntu;fontSize=16;fontStyle=1" vertex="1" parent="Wd8cycBAGi9nkuMcNOLd-1">
          <mxGeometry x="510" y="590" width="60" height="30" as="geometry" />
        </mxCell>
        <mxCell id="Wd8cycBAGi9nkuMcNOLd-7" value="" style="rounded=0;whiteSpace=wrap;html=1;fillColor=#d5e8d4;strokeColor=#82b366;strokeWidth=10;" vertex="1" parent="Wd8cycBAGi9nkuMcNOLd-1">
          <mxGeometry x="80" y="460" width="320" height="120" as="geometry" />
        </mxCell>
        <mxCell id="Wd8cycBAGi9nkuMcNOLd-8" value="main()" style="text;html=1;strokeColor=#82b366;fillColor=#d5e8d4;align=center;verticalAlign=middle;whiteSpace=wrap;rounded=0;fontFamily=Ubuntu;fontSource=https%3A%2F%2Ffonts.googleapis.com%2Fcss%3Ffamily%3DUbuntu;fontSize=17;rotation=-90;" vertex="1" parent="Wd8cycBAGi9nkuMcNOLd-1">
          <mxGeometry x="6.88" y="526.88" width="86.25" height="30" as="geometry" />
        </mxCell>
        <mxCell id="Wd8cycBAGi9nkuMcNOLd-9" style="edgeStyle=orthogonalEdgeStyle;rounded=0;orthogonalLoop=1;jettySize=auto;html=1;entryX=0;entryY=0.5;entryDx=0;entryDy=0;" edge="1" parent="Wd8cycBAGi9nkuMcNOLd-1" source="Wd8cycBAGi9nkuMcNOLd-10" target="Wd8cycBAGi9nkuMcNOLd-14">
          <mxGeometry relative="1" as="geometry" />
        </mxCell>
        <mxCell id="Wd8cycBAGi9nkuMcNOLd-10" value="String[] args = 0xAF10" style="rounded=0;whiteSpace=wrap;html=1;fontFamily=Ubuntu;fontSource=https%3A%2F%2Ffonts.googleapis.com%2Fcss%3Ffamily%3DUbuntu;fontSize=17;" vertex="1" parent="Wd8cycBAGi9nkuMcNOLd-1">
          <mxGeometry x="80" y="460" width="320" height="40" as="geometry" />
        </mxCell>
        <mxCell id="Wd8cycBAGi9nkuMcNOLd-11" value="..." style="rounded=0;whiteSpace=wrap;html=1;fontFamily=Ubuntu;fontSource=https%3A%2F%2Ffonts.googleapis.com%2Fcss%3Ffamily%3DUbuntu;fontSize=17;" vertex="1" parent="Wd8cycBAGi9nkuMcNOLd-1">
          <mxGeometry x="80" y="540" width="320" height="40" as="geometry" />
        </mxCell>
        <mxCell id="Wd8cycBAGi9nkuMcNOLd-12" value="" style="rounded=0;whiteSpace=wrap;html=1;" vertex="1" parent="Wd8cycBAGi9nkuMcNOLd-1">
          <mxGeometry x="490" y="240" width="20" height="40" as="geometry" />
        </mxCell>
        <mxCell id="Wd8cycBAGi9nkuMcNOLd-13" value="int length = 0" style="rounded=0;whiteSpace=wrap;html=1;fontSize=18;fontFamily=Ubuntu;fontSource=https%3A%2F%2Ffonts.googleapis.com%2Fcss%3Ffamily%3DUbuntu;" vertex="1" parent="Wd8cycBAGi9nkuMcNOLd-1">
          <mxGeometry x="490" y="280" width="140" height="40" as="geometry" />
        </mxCell>
        <mxCell id="Wd8cycBAGi9nkuMcNOLd-14" value="0xAF10" style="rounded=0;whiteSpace=wrap;html=1;fontFamily=Ubuntu;fontSource=https%3A%2F%2Ffonts.googleapis.com%2Fcss%3Ffamily%3DUbuntu;fontSize=17;fillColor=#dae8fc;strokeColor=#6c8ebf;" vertex="1" parent="Wd8cycBAGi9nkuMcNOLd-1">
          <mxGeometry x="490" y="210" width="140" height="30" as="geometry" />
        </mxCell>
        <mxCell id="Wd8cycBAGi9nkuMcNOLd-15" value="..." style="rounded=0;whiteSpace=wrap;html=1;fontSize=18;fontFamily=Ubuntu;fontSource=https%3A%2F%2Ffonts.googleapis.com%2Fcss%3Ffamily%3DUbuntu;" vertex="1" parent="Wd8cycBAGi9nkuMcNOLd-1">
          <mxGeometry x="490" y="320" width="140" height="40" as="geometry" />
        </mxCell>
        <mxCell id="Wd8cycBAGi9nkuMcNOLd-16" value="&lt;font style=&quot;font-size: 20px;&quot;&gt;&lt;br&gt;&lt;/font&gt;" style="text;html=1;strokeColor=#b85450;fillColor=#f8cecc;align=left;verticalAlign=top;whiteSpace=wrap;rounded=0;fontFamily=Ubuntu;fontSource=https%3A%2F%2Ffonts.googleapis.com%2Fcss%3Ffamily%3DUbuntu;fontSize=20;" vertex="1" parent="Wd8cycBAGi9nkuMcNOLd-1">
          <mxGeometry x="710" y="80" width="480" height="230" as="geometry" />
        </mxCell>
        <mxCell id="Wd8cycBAGi9nkuMcNOLd-17" style="edgeStyle=orthogonalEdgeStyle;rounded=0;orthogonalLoop=1;jettySize=auto;html=1;entryX=0;entryY=0.25;entryDx=0;entryDy=0;" edge="1" parent="Wd8cycBAGi9nkuMcNOLd-1" source="Wd8cycBAGi9nkuMcNOLd-18" target="Wd8cycBAGi9nkuMcNOLd-20">
          <mxGeometry relative="1" as="geometry" />
        </mxCell>
        <mxCell id="Wd8cycBAGi9nkuMcNOLd-18" value="String str = 0xAF11" style="rounded=0;whiteSpace=wrap;html=1;fontFamily=Ubuntu;fontSource=https%3A%2F%2Ffonts.googleapis.com%2Fcss%3Ffamily%3DUbuntu;fontSize=17;" vertex="1" parent="Wd8cycBAGi9nkuMcNOLd-1">
          <mxGeometry x="80" y="500" width="320" height="40" as="geometry" />
        </mxCell>
        <mxCell id="Wd8cycBAGi9nkuMcNOLd-19" value="IJSE" style="text;html=1;align=center;verticalAlign=middle;whiteSpace=wrap;rounded=0;fontFamily=Ubuntu;fontSource=https%3A%2F%2Ffonts.googleapis.com%2Fcss%3Ffamily%3DUbuntu;fontSize=19;fillColor=#fff2cc;strokeColor=#d6b656;" vertex="1" parent="Wd8cycBAGi9nkuMcNOLd-1">
          <mxGeometry x="590" y="450" width="100" height="30" as="geometry" />
        </mxCell>
        <mxCell id="Wd8cycBAGi9nkuMcNOLd-20" value="0xAF11" style="rounded=0;whiteSpace=wrap;html=1;fontFamily=Ubuntu;fontSource=https%3A%2F%2Ffonts.googleapis.com%2Fcss%3Ffamily%3DUbuntu;fontSize=17;fillColor=#dae8fc;strokeColor=#6c8ebf;" vertex="1" parent="Wd8cycBAGi9nkuMcNOLd-1">
          <mxGeometry x="590" y="420" width="100" height="30" as="geometry" />
        </mxCell>
        <mxCell id="Wd8cycBAGi9nkuMcNOLd-21" value="" style="rounded=0;whiteSpace=wrap;html=1;fillColor=#dae8fc;strokeColor=#6c8ebf;strokeWidth=10;" vertex="1" parent="Wd8cycBAGi9nkuMcNOLd-1">
          <mxGeometry x="80" y="380" width="320" height="80" as="geometry" />
        </mxCell>
        <mxCell id="Wd8cycBAGi9nkuMcNOLd-22" value="changeString()" style="text;html=1;strokeColor=#82b366;fillColor=#d5e8d4;align=center;verticalAlign=middle;whiteSpace=wrap;rounded=0;fontFamily=Ubuntu;fontSource=https%3A%2F%2Ffonts.googleapis.com%2Fcss%3Ffamily%3DUbuntu;fontSize=17;rotation=-90;" vertex="1" parent="Wd8cycBAGi9nkuMcNOLd-1">
          <mxGeometry x="-16.56" y="380" width="133.12" height="30" as="geometry" />
        </mxCell>
        <mxCell id="Wd8cycBAGi9nkuMcNOLd-23" style="edgeStyle=orthogonalEdgeStyle;rounded=0;orthogonalLoop=1;jettySize=auto;html=1;entryX=0;entryY=0.5;entryDx=0;entryDy=0;" edge="1" parent="Wd8cycBAGi9nkuMcNOLd-1" source="Wd8cycBAGi9nkuMcNOLd-24" target="eAqLuMYVWFWqZ4KXqhNm-1">
          <mxGeometry relative="1" as="geometry">
            <Array as="points">
              <mxPoint x="530" y="400" />
              <mxPoint x="530" y="525" />
            </Array>
          </mxGeometry>
        </mxCell>
        <mxCell id="Wd8cycBAGi9nkuMcNOLd-24" value="String str = 0xAF12" style="rounded=0;whiteSpace=wrap;html=1;fontFamily=Ubuntu;fontSource=https%3A%2F%2Ffonts.googleapis.com%2Fcss%3Ffamily%3DUbuntu;fontSize=17;" vertex="1" parent="Wd8cycBAGi9nkuMcNOLd-1">
          <mxGeometry x="80" y="380" width="320" height="40" as="geometry" />
        </mxCell>
        <mxCell id="Wd8cycBAGi9nkuMcNOLd-25" value="..." style="rounded=0;whiteSpace=wrap;html=1;fontFamily=Ubuntu;fontSource=https%3A%2F%2Ffonts.googleapis.com%2Fcss%3Ffamily%3DUbuntu;fontSize=17;" vertex="1" parent="Wd8cycBAGi9nkuMcNOLd-1">
          <mxGeometry x="80" y="420" width="320" height="40" as="geometry" />
        </mxCell>
        <mxCell id="eAqLuMYVWFWqZ4KXqhNm-0" value="DEP" style="text;html=1;align=center;verticalAlign=middle;whiteSpace=wrap;rounded=0;fontFamily=Ubuntu;fontSource=https%3A%2F%2Ffonts.googleapis.com%2Fcss%3Ffamily%3DUbuntu;fontSize=19;fillColor=#fff2cc;strokeColor=#d6b656;" vertex="1" parent="Wd8cycBAGi9nkuMcNOLd-1">
          <mxGeometry x="590" y="540" width="100" height="30" as="geometry" />
        </mxCell>
        <mxCell id="eAqLuMYVWFWqZ4KXqhNm-1" value="0xAF12" style="rounded=0;whiteSpace=wrap;html=1;fontFamily=Ubuntu;fontSource=https%3A%2F%2Ffonts.googleapis.com%2Fcss%3Ffamily%3DUbuntu;fontSize=17;fillColor=#dae8fc;strokeColor=#6c8ebf;" vertex="1" parent="Wd8cycBAGi9nkuMcNOLd-1">
          <mxGeometry x="590" y="510" width="100" height="30" as="geometry" />
        </mxCell>
      </root>
    </mxGraphModel>
  </diagram>
  <diagram name="Page-4" id="seEiNRq32X2OQ5z5Q2gA">
    <mxGraphModel dx="879" dy="594" grid="1" gridSize="10" guides="1" tooltips="1" connect="1" arrows="1" fold="1" page="1" pageScale="1" pageWidth="1100" pageHeight="850" math="0" shadow="0">
      <root>
        <mxCell id="H6UXlZVts5uUgcqYfUMQ-0" />
        <mxCell id="H6UXlZVts5uUgcqYfUMQ-1" parent="H6UXlZVts5uUgcqYfUMQ-0" />
        <mxCell id="H6UXlZVts5uUgcqYfUMQ-2" value="" style="rounded=0;whiteSpace=wrap;html=1;" vertex="1" parent="H6UXlZVts5uUgcqYfUMQ-1">
          <mxGeometry x="80" y="50" width="320" height="530" as="geometry" />
        </mxCell>
        <mxCell id="H6UXlZVts5uUgcqYfUMQ-3" value="" style="rounded=0;whiteSpace=wrap;html=1;" vertex="1" parent="H6UXlZVts5uUgcqYfUMQ-1">
          <mxGeometry x="400" y="50" width="640" height="530" as="geometry" />
        </mxCell>
        <mxCell id="H6UXlZVts5uUgcqYfUMQ-4" value="main thread" style="shape=hexagon;perimeter=hexagonPerimeter2;whiteSpace=wrap;html=1;fixedSize=1;fontFamily=Ubuntu;fontSource=https%3A%2F%2Ffonts.googleapis.com%2Fcss%3Ffamily%3DUbuntu;fontSize=17;" vertex="1" parent="H6UXlZVts5uUgcqYfUMQ-1">
          <mxGeometry x="180" y="10" width="120" height="30" as="geometry" />
        </mxCell>
        <mxCell id="H6UXlZVts5uUgcqYfUMQ-5" value="STACK" style="text;html=1;strokeColor=none;fillColor=none;align=center;verticalAlign=middle;whiteSpace=wrap;rounded=0;fontFamily=Ubuntu;fontSource=https%3A%2F%2Ffonts.googleapis.com%2Fcss%3Ffamily%3DUbuntu;fontSize=16;fontStyle=1" vertex="1" parent="H6UXlZVts5uUgcqYfUMQ-1">
          <mxGeometry x="200" y="590" width="60" height="30" as="geometry" />
        </mxCell>
        <mxCell id="H6UXlZVts5uUgcqYfUMQ-6" value="HEAP" style="text;html=1;strokeColor=none;fillColor=none;align=center;verticalAlign=middle;whiteSpace=wrap;rounded=0;fontFamily=Ubuntu;fontSource=https%3A%2F%2Ffonts.googleapis.com%2Fcss%3Ffamily%3DUbuntu;fontSize=16;fontStyle=1" vertex="1" parent="H6UXlZVts5uUgcqYfUMQ-1">
          <mxGeometry x="510" y="590" width="60" height="30" as="geometry" />
        </mxCell>
        <mxCell id="H6UXlZVts5uUgcqYfUMQ-7" value="" style="rounded=0;whiteSpace=wrap;html=1;fillColor=#d5e8d4;strokeColor=#82b366;strokeWidth=10;" vertex="1" parent="H6UXlZVts5uUgcqYfUMQ-1">
          <mxGeometry x="80" y="460" width="320" height="120" as="geometry" />
        </mxCell>
        <mxCell id="H6UXlZVts5uUgcqYfUMQ-8" value="main()" style="text;html=1;strokeColor=#82b366;fillColor=#d5e8d4;align=center;verticalAlign=middle;whiteSpace=wrap;rounded=0;fontFamily=Ubuntu;fontSource=https%3A%2F%2Ffonts.googleapis.com%2Fcss%3Ffamily%3DUbuntu;fontSize=17;rotation=-90;" vertex="1" parent="H6UXlZVts5uUgcqYfUMQ-1">
          <mxGeometry x="6.88" y="526.88" width="86.25" height="30" as="geometry" />
        </mxCell>
        <mxCell id="H6UXlZVts5uUgcqYfUMQ-9" style="edgeStyle=orthogonalEdgeStyle;rounded=0;orthogonalLoop=1;jettySize=auto;html=1;entryX=0;entryY=0.5;entryDx=0;entryDy=0;" edge="1" parent="H6UXlZVts5uUgcqYfUMQ-1" source="H6UXlZVts5uUgcqYfUMQ-10" target="H6UXlZVts5uUgcqYfUMQ-14">
          <mxGeometry relative="1" as="geometry" />
        </mxCell>
        <mxCell id="H6UXlZVts5uUgcqYfUMQ-10" value="String[] args = 0xAF10" style="rounded=0;whiteSpace=wrap;html=1;fontFamily=Ubuntu;fontSource=https%3A%2F%2Ffonts.googleapis.com%2Fcss%3Ffamily%3DUbuntu;fontSize=17;" vertex="1" parent="H6UXlZVts5uUgcqYfUMQ-1">
          <mxGeometry x="80" y="460" width="320" height="40" as="geometry" />
        </mxCell>
        <mxCell id="H6UXlZVts5uUgcqYfUMQ-11" value="..." style="rounded=0;whiteSpace=wrap;html=1;fontFamily=Ubuntu;fontSource=https%3A%2F%2Ffonts.googleapis.com%2Fcss%3Ffamily%3DUbuntu;fontSize=17;" vertex="1" parent="H6UXlZVts5uUgcqYfUMQ-1">
          <mxGeometry x="80" y="540" width="320" height="40" as="geometry" />
        </mxCell>
        <mxCell id="H6UXlZVts5uUgcqYfUMQ-12" value="" style="rounded=0;whiteSpace=wrap;html=1;" vertex="1" parent="H6UXlZVts5uUgcqYfUMQ-1">
          <mxGeometry x="490" y="240" width="20" height="40" as="geometry" />
        </mxCell>
        <mxCell id="H6UXlZVts5uUgcqYfUMQ-13" value="int length = 0" style="rounded=0;whiteSpace=wrap;html=1;fontSize=18;fontFamily=Ubuntu;fontSource=https%3A%2F%2Ffonts.googleapis.com%2Fcss%3Ffamily%3DUbuntu;" vertex="1" parent="H6UXlZVts5uUgcqYfUMQ-1">
          <mxGeometry x="490" y="280" width="140" height="40" as="geometry" />
        </mxCell>
        <mxCell id="H6UXlZVts5uUgcqYfUMQ-14" value="0xAF10" style="rounded=0;whiteSpace=wrap;html=1;fontFamily=Ubuntu;fontSource=https%3A%2F%2Ffonts.googleapis.com%2Fcss%3Ffamily%3DUbuntu;fontSize=17;fillColor=#dae8fc;strokeColor=#6c8ebf;" vertex="1" parent="H6UXlZVts5uUgcqYfUMQ-1">
          <mxGeometry x="490" y="210" width="140" height="30" as="geometry" />
        </mxCell>
        <mxCell id="H6UXlZVts5uUgcqYfUMQ-15" value="..." style="rounded=0;whiteSpace=wrap;html=1;fontSize=18;fontFamily=Ubuntu;fontSource=https%3A%2F%2Ffonts.googleapis.com%2Fcss%3Ffamily%3DUbuntu;" vertex="1" parent="H6UXlZVts5uUgcqYfUMQ-1">
          <mxGeometry x="490" y="320" width="140" height="40" as="geometry" />
        </mxCell>
        <mxCell id="H6UXlZVts5uUgcqYfUMQ-16" value="&lt;font style=&quot;font-size: 20px;&quot;&gt;IJSE&lt;br&gt;&lt;/font&gt;" style="text;html=1;strokeColor=#b85450;fillColor=#f8cecc;align=left;verticalAlign=top;whiteSpace=wrap;rounded=0;fontFamily=Ubuntu;fontSource=https%3A%2F%2Ffonts.googleapis.com%2Fcss%3Ffamily%3DUbuntu;fontSize=20;" vertex="1" parent="H6UXlZVts5uUgcqYfUMQ-1">
          <mxGeometry x="710" y="80" width="480" height="230" as="geometry" />
        </mxCell>
        <mxCell id="H6UXlZVts5uUgcqYfUMQ-17" style="edgeStyle=orthogonalEdgeStyle;rounded=0;orthogonalLoop=1;jettySize=auto;html=1;entryX=0;entryY=0.25;entryDx=0;entryDy=0;" edge="1" parent="H6UXlZVts5uUgcqYfUMQ-1" source="H6UXlZVts5uUgcqYfUMQ-18" target="H6UXlZVts5uUgcqYfUMQ-20">
          <mxGeometry relative="1" as="geometry" />
        </mxCell>
        <mxCell id="H6UXlZVts5uUgcqYfUMQ-18" value="String str = 0xAF11" style="rounded=0;whiteSpace=wrap;html=1;fontFamily=Ubuntu;fontSource=https%3A%2F%2Ffonts.googleapis.com%2Fcss%3Ffamily%3DUbuntu;fontSize=17;" vertex="1" parent="H6UXlZVts5uUgcqYfUMQ-1">
          <mxGeometry x="80" y="500" width="320" height="40" as="geometry" />
        </mxCell>
        <mxCell id="H6UXlZVts5uUgcqYfUMQ-19" value="IJSE" style="text;html=1;align=center;verticalAlign=middle;whiteSpace=wrap;rounded=0;fontFamily=Ubuntu;fontSource=https%3A%2F%2Ffonts.googleapis.com%2Fcss%3Ffamily%3DUbuntu;fontSize=19;fillColor=#fff2cc;strokeColor=#d6b656;" vertex="1" parent="H6UXlZVts5uUgcqYfUMQ-1">
          <mxGeometry x="590" y="450" width="100" height="30" as="geometry" />
        </mxCell>
        <mxCell id="H6UXlZVts5uUgcqYfUMQ-20" value="0xAF11" style="rounded=0;whiteSpace=wrap;html=1;fontFamily=Ubuntu;fontSource=https%3A%2F%2Ffonts.googleapis.com%2Fcss%3Ffamily%3DUbuntu;fontSize=17;fillColor=#dae8fc;strokeColor=#6c8ebf;" vertex="1" parent="H6UXlZVts5uUgcqYfUMQ-1">
          <mxGeometry x="590" y="420" width="100" height="30" as="geometry" />
        </mxCell>
        <mxCell id="H6UXlZVts5uUgcqYfUMQ-26" value="DEP" style="text;html=1;align=center;verticalAlign=middle;whiteSpace=wrap;rounded=0;fontFamily=Ubuntu;fontSource=https%3A%2F%2Ffonts.googleapis.com%2Fcss%3Ffamily%3DUbuntu;fontSize=19;fillColor=#fff2cc;strokeColor=#d6b656;" vertex="1" parent="H6UXlZVts5uUgcqYfUMQ-1">
          <mxGeometry x="590" y="540" width="100" height="30" as="geometry" />
        </mxCell>
        <mxCell id="H6UXlZVts5uUgcqYfUMQ-27" value="0xAF12" style="rounded=0;whiteSpace=wrap;html=1;fontFamily=Ubuntu;fontSource=https%3A%2F%2Ffonts.googleapis.com%2Fcss%3Ffamily%3DUbuntu;fontSize=17;fillColor=#dae8fc;strokeColor=#6c8ebf;" vertex="1" parent="H6UXlZVts5uUgcqYfUMQ-1">
          <mxGeometry x="590" y="510" width="100" height="30" as="geometry" />
        </mxCell>
      </root>
    </mxGraphModel>
  </diagram>
  <diagram name="Page-5" id="qmsmPSgUqJ3qhd9ZfV7J">
    <mxGraphModel dx="879" dy="594" grid="1" gridSize="10" guides="1" tooltips="1" connect="1" arrows="1" fold="1" page="1" pageScale="1" pageWidth="1100" pageHeight="850" math="0" shadow="0">
      <root>
        <mxCell id="INMYhSSj-DcwxTNGfugD-0" />
        <mxCell id="INMYhSSj-DcwxTNGfugD-1" parent="INMYhSSj-DcwxTNGfugD-0" />
        <mxCell id="INMYhSSj-DcwxTNGfugD-2" value="" style="rounded=0;whiteSpace=wrap;html=1;" vertex="1" parent="INMYhSSj-DcwxTNGfugD-1">
          <mxGeometry x="80" y="50" width="320" height="530" as="geometry" />
        </mxCell>
        <mxCell id="INMYhSSj-DcwxTNGfugD-3" value="" style="rounded=0;whiteSpace=wrap;html=1;" vertex="1" parent="INMYhSSj-DcwxTNGfugD-1">
          <mxGeometry x="400" y="50" width="640" height="530" as="geometry" />
        </mxCell>
        <mxCell id="INMYhSSj-DcwxTNGfugD-4" value="main thread" style="shape=hexagon;perimeter=hexagonPerimeter2;whiteSpace=wrap;html=1;fixedSize=1;fontFamily=Ubuntu;fontSource=https%3A%2F%2Ffonts.googleapis.com%2Fcss%3Ffamily%3DUbuntu;fontSize=17;" vertex="1" parent="INMYhSSj-DcwxTNGfugD-1">
          <mxGeometry x="180" y="10" width="120" height="30" as="geometry" />
        </mxCell>
        <mxCell id="INMYhSSj-DcwxTNGfugD-5" value="STACK" style="text;html=1;strokeColor=none;fillColor=none;align=center;verticalAlign=middle;whiteSpace=wrap;rounded=0;fontFamily=Ubuntu;fontSource=https%3A%2F%2Ffonts.googleapis.com%2Fcss%3Ffamily%3DUbuntu;fontSize=16;fontStyle=1" vertex="1" parent="INMYhSSj-DcwxTNGfugD-1">
          <mxGeometry x="200" y="590" width="60" height="30" as="geometry" />
        </mxCell>
        <mxCell id="INMYhSSj-DcwxTNGfugD-6" value="HEAP" style="text;html=1;strokeColor=none;fillColor=none;align=center;verticalAlign=middle;whiteSpace=wrap;rounded=0;fontFamily=Ubuntu;fontSource=https%3A%2F%2Ffonts.googleapis.com%2Fcss%3Ffamily%3DUbuntu;fontSize=16;fontStyle=1" vertex="1" parent="INMYhSSj-DcwxTNGfugD-1">
          <mxGeometry x="510" y="590" width="60" height="30" as="geometry" />
        </mxCell>
        <mxCell id="INMYhSSj-DcwxTNGfugD-12" value="" style="rounded=0;whiteSpace=wrap;html=1;" vertex="1" parent="INMYhSSj-DcwxTNGfugD-1">
          <mxGeometry x="490" y="240" width="20" height="40" as="geometry" />
        </mxCell>
        <mxCell id="INMYhSSj-DcwxTNGfugD-13" value="int length = 0" style="rounded=0;whiteSpace=wrap;html=1;fontSize=18;fontFamily=Ubuntu;fontSource=https%3A%2F%2Ffonts.googleapis.com%2Fcss%3Ffamily%3DUbuntu;" vertex="1" parent="INMYhSSj-DcwxTNGfugD-1">
          <mxGeometry x="490" y="280" width="140" height="40" as="geometry" />
        </mxCell>
        <mxCell id="INMYhSSj-DcwxTNGfugD-14" value="0xAF10" style="rounded=0;whiteSpace=wrap;html=1;fontFamily=Ubuntu;fontSource=https%3A%2F%2Ffonts.googleapis.com%2Fcss%3Ffamily%3DUbuntu;fontSize=17;fillColor=#dae8fc;strokeColor=#6c8ebf;" vertex="1" parent="INMYhSSj-DcwxTNGfugD-1">
          <mxGeometry x="490" y="210" width="140" height="30" as="geometry" />
        </mxCell>
        <mxCell id="INMYhSSj-DcwxTNGfugD-15" value="..." style="rounded=0;whiteSpace=wrap;html=1;fontSize=18;fontFamily=Ubuntu;fontSource=https%3A%2F%2Ffonts.googleapis.com%2Fcss%3Ffamily%3DUbuntu;" vertex="1" parent="INMYhSSj-DcwxTNGfugD-1">
          <mxGeometry x="490" y="320" width="140" height="40" as="geometry" />
        </mxCell>
        <mxCell id="INMYhSSj-DcwxTNGfugD-16" value="&lt;font style=&quot;font-size: 20px;&quot;&gt;IJSE&lt;br&gt;&lt;/font&gt;" style="text;html=1;strokeColor=#b85450;fillColor=#f8cecc;align=left;verticalAlign=top;whiteSpace=wrap;rounded=0;fontFamily=Ubuntu;fontSource=https%3A%2F%2Ffonts.googleapis.com%2Fcss%3Ffamily%3DUbuntu;fontSize=20;" vertex="1" parent="INMYhSSj-DcwxTNGfugD-1">
          <mxGeometry x="710" y="80" width="480" height="230" as="geometry" />
        </mxCell>
        <mxCell id="INMYhSSj-DcwxTNGfugD-19" value="IJSE" style="text;html=1;align=center;verticalAlign=middle;whiteSpace=wrap;rounded=0;fontFamily=Ubuntu;fontSource=https%3A%2F%2Ffonts.googleapis.com%2Fcss%3Ffamily%3DUbuntu;fontSize=19;fillColor=#fff2cc;strokeColor=#d6b656;" vertex="1" parent="INMYhSSj-DcwxTNGfugD-1">
          <mxGeometry x="590" y="450" width="100" height="30" as="geometry" />
        </mxCell>
        <mxCell id="INMYhSSj-DcwxTNGfugD-20" value="0xAF11" style="rounded=0;whiteSpace=wrap;html=1;fontFamily=Ubuntu;fontSource=https%3A%2F%2Ffonts.googleapis.com%2Fcss%3Ffamily%3DUbuntu;fontSize=17;fillColor=#dae8fc;strokeColor=#6c8ebf;" vertex="1" parent="INMYhSSj-DcwxTNGfugD-1">
          <mxGeometry x="590" y="420" width="100" height="30" as="geometry" />
        </mxCell>
        <mxCell id="INMYhSSj-DcwxTNGfugD-21" value="DEP" style="text;html=1;align=center;verticalAlign=middle;whiteSpace=wrap;rounded=0;fontFamily=Ubuntu;fontSource=https%3A%2F%2Ffonts.googleapis.com%2Fcss%3Ffamily%3DUbuntu;fontSize=19;fillColor=#fff2cc;strokeColor=#d6b656;" vertex="1" parent="INMYhSSj-DcwxTNGfugD-1">
          <mxGeometry x="590" y="540" width="100" height="30" as="geometry" />
        </mxCell>
        <mxCell id="INMYhSSj-DcwxTNGfugD-22" value="0xAF12" style="rounded=0;whiteSpace=wrap;html=1;fontFamily=Ubuntu;fontSource=https%3A%2F%2Ffonts.googleapis.com%2Fcss%3Ffamily%3DUbuntu;fontSize=17;fillColor=#dae8fc;strokeColor=#6c8ebf;" vertex="1" parent="INMYhSSj-DcwxTNGfugD-1">
          <mxGeometry x="590" y="510" width="100" height="30" as="geometry" />
        </mxCell>
        <mxCell id="E__iv2QOG00i-B_y-xxr-0" value="" style="shape=stencil(lVfZctswDPwavWJAArye0/Q/MhOn9tS1M457/X2p0UgWCWtTv8nygsKxC4CDPH3sX953g+eP6+X8fff78HrdD/Jl8P5w2u8uh2t9GuR5kKe382X37XL+eXqdfr+/jMjx6cf513jCn8muFCoyWnn+O71hCtOLrxP+eDit8ZmUG7wnXwBeKcQGH0kCwDOV1OCrg7qNz5G8a/BOYQCZiVuHasQStw2Sp9xmyCfyadsgKqU2RRKIQQyhxpAbAxVyfttAE6XQGARHwtsGUki0NSiwDOJIfVu2RA6k1ev892yQlCJwySUqbZayIwfS6jzF9gu19gkYJNI2qwVTVUjb80uknLfxTKllXtVSBv5w73/B1K5CNOcX4H+lcWmVwJXroARMPpoPwIBdeCwANufjBLEJOEF/mHt8xHhTgAAT6sz5AebTlR6vMD9i4lWH8KoGD/0JJv8KNFwJmgweC8D4E0An5bma63qBJnQPnzDe+JNh/qPlP2i7NZ+W/5DPXUP5XJBiCIcVbwlXYAHY4DM83womQ4JaQSaM9z0+wgKwISia9Y/ivSFcpAAIFGd6LXgHG2IdYV2C6ghTEHAdkl2LrutLBgZ1iIX2C3UMe+CSVNG0nIh1qgIOSabUFi1kqAJN/WYQGMoshL4PqZ+VvbVwcVs30VnaWyud75ZYPOpTMVLG0s+BQhtDXUsdiKHYYQB7aZHZ4SWr0KGS5tG4ODQv/vfxpe8ty/TfwndMXZrNFr7bSBnuyLdRusKD1jIqPfR40Hpvo+i/z08mXux/Nv4Dxt1G0Sr/+Pzu3sTzxeh+Z2HTrBlux3cNBDFuWSZveMUMeuwm+im+PtyuvW+H43G6Na//76/J9dV0xZbnfw==);lineShape=1;" vertex="1" parent="INMYhSSj-DcwxTNGfugD-1">
          <mxGeometry x="359.647615683195" y="117.58529960843669" width="318.7607475876864" height="416.4626005047138" as="geometry" />
        </mxCell>
        <mxCell id="E__iv2QOG00i-B_y-xxr-1" value="" style="shape=stencil(lVjbctpADP0av2r2fnlO0//ITEhhSiFDaJv8fbWlJmjlPS5vIOt4paPrevIPb9un183kzNv5dPy++b17Pm8n/2VybnfYbk67M/+a/OPkH16Op8230/Hn4fny//WpabZfP46/2hveLzhDITaQMx+zwJS/gq8X9f3ucKPuqDih7iilsXoh44V6plrH6tZRrEK/ScD7bSEv7WGJAwAXyUh/XaAaxgDPBhQBaBI7BgRDXgJY4oDTgUmyEpApA0CM5JMAsMTGMSDZ2cUZkBwZBwAcJulDKhQArdlTkD7kQA6ckDlwXWZU8oDW4ihnASieMkq9RFlGujCtZgyopqe1WnKA1uoVIMzZtQxI5CRLTQKqrTLrMr3rNTLLgEpFFhBLPEhvflxjDwggcA2gTogAYA13FNMjkr/ziIx4XXKirACUSRWb1PW9BsCByLLkbngYIVK+84ikncChi0HRhL2OVgViBaBDDar6M3duswmzFBVLYYVW3wM89iErp1H/bgCVriuAkpRJKzWnfcAnVM0SyKVBkQJelxEZx1obVVbc1kWHTyiqD/w7cxg6adL/VKkKNlppGkA7gTvynYBCVg5rlsCiiyoQCfPqyXROB0qov16XyJtRWoAPPKxDN90LrCFeB4I0qQQ46HjhMLL55eusHK00Vq00aC3jpSl1S1OdzxytZUmmK69lKHC85nW0siSDE9oiKRsHL5se9AFeVa0sapYglngZdjIO/srb8gIe5q3tuoBHiiCXrLpDsKSAorbKJOvnClmONGVZcGWuwMEVqMs8D3c406eRgSOUKyd16uiCZXpyzHxdGan3xqCxoFq8gWNn4e2ohk1fkawOWq/qKcwsCBM/7ZkxkEhbe3X4dteHCY0N0992VtWVMTBn7rrDr6rzj8/PBS+7/f7yteH2ef95gUWXTxP+8Q8=);lineShape=1;" vertex="1" parent="INMYhSSj-DcwxTNGfugD-1">
          <mxGeometry x="268.5860104258252" y="166.58959947957362" width="503.75629969679676" height="349.6898881430528" as="geometry" />
        </mxCell>
      </root>
    </mxGraphModel>
  </diagram>
</mxfile>
